# xmcd
#
# Track frame offsets:
#	183
#	13950
#	27328
#	38795
#	50935
#	61915
#	73593
#	85978
#	97443
#	110728
#	121750
#	135688
#
# Disc length: 1962 seconds
#
# Revision: 1
# Processed by: cddbd v1.5.2PL0 Copyright (c) Steve Scherf et al.
# Submitted via: audiograbber 1.83.01
#
DISCID=b307a80c
DTITLE=Glen Campbell - Greatest Hits
DYEAR=1972
DGENRE=Country
TTITLE0=Honey Come Back
TTITLE1=Gentle On My Mind
TTITLE2=Everything A Man Could Ever Need
TTITLE3=Galveston
TTITLE4=Try A Little Kindness
TTITLE5=Dreams Of The Everyday Housewife
TTITLE6=By The Time I Get To Phoenix
TTITLE7=Dream Baby (How Long Must I Dream)
TTITLE8=Where's The Playground Susie
TTITLE9=It's Only Make Believe
TTITLE10=Wichita Lineman
TTITLE11=All I Have To Do Is Dream (with Bobbie Gentry)
EXTD=
EXTT0=
EXTT1=
EXTT2=
EXTT3=
EXTT4=
EXTT5=
EXTT6=
EXTT7=
EXTT8=
EXTT9=
EXTT10=
EXTT11=
PLAYORDER=
